<svg id="world-internet" enable-background="new 0 0 300 300" height="512" viewBox="0 0 300 300" width="512" xmlns="http://www.w3.org/2000/svg"><g><path d="m264.569 110.651c-2.362 0-4.276 1.915-4.276 4.277s1.915 4.276 4.276 4.276 4.277-1.915 4.277-4.276-1.915-4.277-4.277-4.277z"/><path d="m40.569 186.651c-2.362 0-4.276 1.915-4.276 4.277s1.915 4.276 4.276 4.276 4.277-1.915 4.277-4.276-1.915-4.277-4.277-4.277z"/><path d="m239.564 50c2.211 0 4-1.791 4-4v-8c0-2.209-1.789-4-4-4s-4 1.791-4 4v8c0 2.209 1.789 4 4 4z"/><path d="m239.564 58c-2.211 0-4 1.791-4 4v8c0 2.209 1.789 4 4 4s4-1.791 4-4v-8c0-2.209-1.789-4-4-4z"/><path d="m223.564 58h8c2.211 0 4-1.791 4-4s-1.789-4-4-4h-8c-2.211 0-4 1.791-4 4s1.789 4 4 4z"/><path d="m255.564 50h-8c-2.211 0-4 1.791-4 4s1.789 4 4 4h8c2.211 0 4-1.791 4-4s-1.789-4-4-4z"/><path d="m218.038 95.024c-.103-.083-.196-.169-.306-.241-15.863-12.98-36.119-20.783-58.168-20.783-1.716 0-3.448.109-5.176.205-4.505-20.671-22.926-36.205-44.926-36.205-22.945 0-42.32 17.291-45.504 39.533-2.039-.508-4.109-.764-6.191-.764-14.676 0-26.613 11.939-26.613 26.615s11.937 26.616 26.613 26.616h17.107c-4.853 11.365-7.31 23.45-7.31 36 0 7.291.878 14.376 2.489 21.182.001.004.001.007.002.011 9.599 40.542 46.073 70.807 89.509 70.807 50.73 0 92-41.271 92-92 0-28.541-13.064-54.088-33.526-70.976zm14.769 63.707c-.961-4.268-3.643-7.858-7.27-10.076 2.605-8.825 4.179-20.094 1.651-32.274 9.3 12.64 15.119 27.936 16.118 44.55-3.517-.793-7.018-1.529-10.499-2.2zm-77.243 59.269c0-4.412 3.59-8 8-8s8 3.588 8 8-3.59 8-8 8-8-3.588-8-8zm8-16c-4.632 0-8.774 2.008-11.698 5.163-6.863-9.315-11.626-19.51-14.23-30.375 5.443-2.243 9.317-7.413 9.802-13.534 17.053-2.291 35.147-2.601 53.899-.923.04 5.985 3.422 11.138 8.343 13.832-7.981 13.333-18.872 24.623-32.441 33.654-2.799-4.66-7.853-7.817-13.675-7.817zm-8.871-72c9.175 0 16.85-6.2 19.277-14.604 11.673 10.591 21.866 22.833 30.164 36.663.133.221.303.403.469.589-.441.582-.827 1.197-1.187 1.837-19.95-1.887-39.203-1.586-57.336.881-1.954-4.257-5.718-7.471-10.307-8.732.535-5.399 1.512-10.969 2.915-16.633h16.005zm-23.129 24c4.41 0 8 3.588 8 8s-3.59 8-8 8-8-3.588-8-8 3.59-8 8-8zm85.707 16.174c-.412 0-.808-.061-1.202-.122-.087-.011-.169-.02-.256-.026-3.687-.688-6.487-3.917-6.487-7.8 0-4.383 3.562-7.949 7.945-7.949s7.949 3.566 7.949 7.949-3.566 7.948-7.949 7.948zm-57.707-88.174c20.08 0 38.523 7.101 52.991 18.899 10.204 16.878 8.799 33.616 5.325 45.44-.207-.008-.401-.062-.609-.062-2.301 0-4.478.512-6.455 1.394-9.753-16.183-21.856-30.437-36.01-42.349-.189-.159-.417-.222-.624-.341-2.16-8.636-9.843-15.108-19.095-15.286.25-1.918.375-3.82.375-5.695 0-.619-.068-1.22-.093-1.833 1.401-.069 2.802-.167 4.195-.167zm-120.41 21.385c0-10.264 8.352-18.615 18.613-18.615 2.703 0 5.398.637 8.012 1.891 1.215.586 2.664.51 3.824-.195 1.156-.711 1.875-1.963 1.906-3.32.457-20.484 17.481-37.146 37.953-37.146 20.953 0 38 17.047 38 38 0 3.064-.414 6.242-1.234 9.443-.359 1.398.066 2.879 1.105 3.877 1.035 1 2.527 1.359 3.918.947 1.312-.393 2.406-.576 3.441-.576 6.699 0 12.152 5.453 12.152 12.154s-5.452 12.155-12.151 12.155h-96.926c-10.262 0-18.613-8.352-18.613-18.615zm91.292 26.615c-1.304 5.61-2.2 11.134-2.7 16.511-6.928 1.711-12.096 7.905-12.167 15.337-19.292 5.741-32.213 12.939-38.884 17.281-.678-4.29-1.132-8.653-1.132-13.13 0-12.625 2.748-24.722 8.116-36h46.767zm-51.964 57.595c4.739-3.349 17.842-11.625 39.092-17.991 2.423 4.437 6.845 7.57 12.08 8.203 3.089 13.481 9.204 26.005 18.207 37.258-.178.954-.297 1.93-.297 2.935 0 2.165.442 4.226 1.225 6.111-13.714 5.069-26.218 7.595-33.932 9.135-1.562.312-2.949.59-4.133.844-.037.008-.062.034-.099.043-15.542-11.196-27.075-27.539-32.143-46.538zm41.966 52.681c8.466-1.741 20.484-4.519 33.51-9.562 2.684 2.033 5.987 3.286 9.606 3.286 1.127 0 2.226-.124 3.287-.346 7.132 5.537 13.843 9.521 18.832 12.135-8.231 2.702-16.996 4.211-26.119 4.211-14.123 0-27.422-3.54-39.116-9.724zm75.237 1.445c-3.124-1.347-11.5-5.273-21.046-12.219 3.024-2.913 4.925-6.981 4.925-11.502 0-.036-.011-.07-.011-.106 16.303-10.385 29.138-23.764 38.24-39.773 6.953-.23 12.735-4.92 14.672-11.303 3.628.713 7.276 1.492 10.938 2.339-1.197 32.022-20.357 59.456-47.718 72.564z"/><path d="m99.564 82c2.211 0 4-1.791 4-4s-1.789-4-4-4h-16c-2.211 0-4 1.791-4 4v12c0 2.209 1.789 4 4 4h6c3.309 0 6 2.691 6 6s-2.691 6-6 6h-6c-2.211 0-4 1.791-4 4s1.789 4 4 4h6c7.719 0 14-6.281 14-14s-6.281-14-14-14h-2v-4z"/><path d="m123.564 90h8c2.211 0 4-1.791 4-4s-1.789-4-4-4h-8c-8.824 0-16 7.178-16 16s7.176 16 16 16h8c2.211 0 4-1.791 4-4v-12c0-2.209-1.789-4-4-4h-4c-2.211 0-4 1.791-4 4s1.789 4 4 4v4h-4c-4.41 0-8-3.588-8-8s3.59-8 8-8z"/><path d="m73.564 238c-7.719 0-14 6.281-14 14s6.281 14 14 14 14-6.281 14-14-6.281-14-14-14zm0 20c-3.309 0-6-2.691-6-6s2.691-6 6-6 6 2.691 6 6-2.691 6-6 6z"/></g></svg>